# xmcd
#
# Track frame offsets:
#	150
#	14879
#	29263
#	43741
#	61354
#	82685
#	95741
#	111253
#	128866
#	148859
#
# Disc length: 2200 seconds
#
# Revision: 0
# Processed by: cddbd v1.5.1PL2 Copyright (c) Steve Scherf et al.
# Submitted via: EasyCDDAExtractor 4.6.9.1
#
DISCID=8c08960a
DTITLE=Soledad - 10 Años de Soledad CD2
DYEAR=2005
DGENRE=Country
TTITLE0=Entre A Mi Pago Sin Golpear
TTITLE1=Que Nadie Sepa Mi Sufrir
TTITLE2=Propiedad Privada
TTITLE3=Tren Del Cielo
TTITLE4=A Donde Vayas
TTITLE5=SalteñIta De Los Valles
TTITLE6=Todos Juntos
TTITLE7=Pilchas Gauchas
TTITLE8=El Bahiano
TTITLE9=A Don Ata
EXTD=
EXTT0=
EXTT1=
EXTT2=
EXTT3=
EXTT4=
EXTT5=
EXTT6=
EXTT7=
EXTT8=
EXTT9=
PLAYORDER=
